<svg width="110" height="110" viewBox="0 0 110 110" fill="none" xmlns="http://www.w3.org/2000/svg">
<path d="M96.25 20.625H13.75C12.8383 20.625 11.964 20.9872 11.3193 21.6318C10.6747 22.2765 10.3125 23.1508 10.3125 24.0625V82.5C10.3125 84.3234 11.0368 86.072 12.3261 87.3614C13.6155 88.6507 15.3641 89.375 17.1875 89.375H92.8125C94.6359 89.375 96.3845 88.6507 97.6739 87.3614C98.9632 86.072 99.6875 84.3234 99.6875 82.5V24.0625C99.6875 23.1508 99.3253 22.2765 98.6807 21.6318C98.036 20.9872 97.1617 20.625 96.25 20.625ZM55 57.2129L22.5887 27.5H87.4113L55 57.2129ZM42.4145 55L17.1875 78.1215V31.8785L42.4145 55ZM47.502 59.6621L52.6582 64.4102C53.2924 64.9923 54.1219 65.3153 54.9828 65.3153C55.8437 65.3153 56.6732 64.9923 57.3074 64.4102L62.4637 59.6621L87.3855 82.5H22.5887L47.502 59.6621ZM67.5855 55L92.8125 31.8742V78.1258L67.5855 55Z" fill="black"/>
</svg>
