<svg width="1416" height="568" viewBox="0 0 1416 568" fill="none" xmlns="http://www.w3.org/2000/svg">
<rect x="0.5" y="0.5" width="1415" height="567" stroke="black"/>
<path d="M978.397 393.631C903.602 320.222 801.084 275.041 688.074 275.041C679.218 275.041 670.458 275.33 661.698 275.908H661.506C502.868 285.927 368.391 385.153 307.746 523.974C303.511 533.608 299.661 543.53 296.099 553.549C291.382 567.133 335.277 564.724 364.637 556.825C385.237 551.334 406.992 548.347 429.42 548.347C431.731 548.347 433.945 548.347 436.255 548.444C436.255 548.444 436.351 548.444 436.447 548.444C446.94 548.733 457.144 549.6 467.251 551.141H467.347C479.669 549.214 492.279 548.251 505.178 548.251C515.67 548.251 525.97 548.925 536.078 550.178C546.185 548.925 556.485 548.251 566.977 548.251C580.165 548.251 593.064 549.311 605.771 551.237C618.381 549.214 631.376 548.251 644.564 548.251C657.752 548.251 669.592 549.214 681.721 550.948C693.849 549.118 706.171 548.251 718.781 548.251C728.888 548.251 738.9 548.829 748.718 550.081C758.537 548.925 768.548 548.251 778.655 548.251C790.399 548.251 801.951 549.022 813.309 550.659C824.668 549.022 836.123 548.251 847.963 548.251C862.595 548.251 876.842 549.503 890.703 551.912C904.565 549.503 918.812 548.251 933.443 548.251C995.147 548.251 1086.31 571.083 1080.24 553.549C1058.97 492.472 1023.83 437.946 978.686 393.727L978.397 393.631ZM617.226 386.502C615.974 389.103 612.701 390.548 609.91 389.681C607.215 388.91 605.097 386.02 605.386 383.13C605.674 383.13 605.963 383.323 606.252 383.419C606.252 380.24 609.621 377.157 612.894 377.735C616.552 378.41 618.862 383.13 617.226 386.406V386.502Z" fill="#FEC931" stroke="#FEC931" stroke-miterlimit="10"/>
<path d="M422.778 547.191C398.906 549.599 375.033 552.49 351.16 555.572C371.76 550.081 393.515 547.095 415.944 547.095C418.254 547.095 420.468 547.095 422.778 547.191Z" stroke="#FEC931" stroke-miterlimit="10"/>
<path d="M0.577637 510.873L243.829 526.768" stroke="#ADD6F1" stroke-width="2" stroke-miterlimit="10"/>
<path d="M188.383 375.52L305.725 439.487" stroke="#FEC931" stroke-width="2" stroke-miterlimit="10"/>
<path d="M219.475 206.931L385.044 350.183" stroke="#9CCEA6" stroke-width="2" stroke-miterlimit="10"/>
<path d="M399.483 202.307L462.919 281.977" stroke="#F5A325" stroke-width="2" stroke-miterlimit="10"/>
<path d="M481.787 56.9351L554.753 227.643" stroke="#F3A5BA" stroke-width="2" stroke-miterlimit="10"/>
<path d="M797.812 1.6377L759.211 219.166" stroke="#B0DEED" stroke-width="2" stroke-miterlimit="10"/>
<path d="M645.045 119.554L658.522 210.206" stroke="#9CCEA6" stroke-width="2" stroke-miterlimit="10"/>
<path d="M921.122 153.368L881.366 251.246" stroke="#F3987D" stroke-width="2" stroke-miterlimit="10"/>
<path d="M955.487 310.107L1166.11 142.289" stroke="#ADD6F1" stroke-width="2" stroke-miterlimit="10"/>
<path d="M1062.14 413.187L1176.21 379.951" stroke="#9CCEA6" stroke-width="2" stroke-miterlimit="10"/>
<path d="M1132.03 556.632L1415.52 544.012" stroke="#FEC931" stroke-width="2" stroke-miterlimit="10"/>
<path d="M549.939 455.286C619.729 510.391 718.685 507.212 783.565 445.653C797.041 432.84 776.634 412.417 763.157 425.229C710.599 475.035 627.622 480.045 570.347 434.863C564.186 429.95 556.004 428.987 549.939 434.863C544.837 439.873 543.875 450.47 549.939 455.286Z" fill="white"/>
<path d="M608.466 396.617C613.676 396.617 617.899 392.39 617.899 387.176C617.899 381.962 613.676 377.735 608.466 377.735C603.256 377.735 599.032 381.962 599.032 387.176C599.032 392.39 603.256 396.617 608.466 396.617Z" fill="white" stroke="white" stroke-miterlimit="10"/>
<path d="M726.386 394.691C731.596 394.691 735.819 390.464 735.819 385.25C735.819 380.035 731.596 375.809 726.386 375.809C721.176 375.809 716.952 380.035 716.952 385.25C716.952 390.464 721.176 394.691 726.386 394.691Z" fill="white" stroke="white" stroke-miterlimit="10"/>
</svg>
