<svg width="90" height="93" viewBox="0 0 90 93" fill="none" xmlns="http://www.w3.org/2000/svg">
<path d="M85.9375 24.0625C80.4692 24.0568 75.2264 21.882 71.3597 18.0153C67.493 14.1486 65.3182 8.90584 65.3125 3.4375C65.3125 2.52582 64.9503 1.65148 64.3057 1.00682C63.661 0.362164 62.7867 0 61.875 0H44.6875C43.7758 0 42.9015 0.362164 42.2568 1.00682C41.6122 1.65148 41.25 2.52582 41.25 3.4375V60.1562C41.2493 61.694 40.836 63.2035 40.0531 64.5271C39.2703 65.8507 38.1467 66.94 36.7994 67.6814C35.4521 68.4228 33.9306 68.7891 32.3935 68.7421C30.8565 68.695 29.3602 68.2365 28.0607 67.4141C26.7613 66.5918 25.7063 65.4359 25.0058 64.0669C24.3054 62.6979 23.9851 61.166 24.0783 59.6311C24.1716 58.0961 24.675 56.6143 25.5361 55.3402C26.3972 54.0661 27.5844 53.0464 28.9738 52.3875C29.5616 52.1086 30.0581 51.6686 30.4057 51.1186C30.7533 50.5687 30.9377 49.9314 30.9375 49.2809V30.9375C30.9377 30.435 30.8278 29.9386 30.6154 29.4832C30.403 29.0278 30.0934 28.6245 29.7083 28.3017C29.3233 27.9789 28.8721 27.7444 28.3866 27.6148C27.9012 27.4852 27.3932 27.4636 26.8984 27.5516C11.5629 30.2844 0 44.3008 0 60.1562C0 68.8172 3.44056 77.1235 9.56479 83.2477C15.689 89.3719 23.9953 92.8125 32.6562 92.8125C41.3172 92.8125 49.6235 89.3719 55.7477 83.2477C61.8719 77.1235 65.3125 68.8172 65.3125 60.1562V43.0934C71.679 46.415 78.7566 48.1417 85.9375 48.125C86.8492 48.125 87.7235 47.7628 88.3682 47.1182C89.0128 46.4735 89.375 45.5992 89.375 44.6875V27.5C89.375 26.5883 89.0128 25.714 88.3682 25.0693C87.7235 24.4247 86.8492 24.0625 85.9375 24.0625ZM82.5 41.0953C75.7824 40.5001 69.3501 38.1026 63.8816 34.1559C63.3677 33.7863 62.7616 33.5659 62.1303 33.5189C61.4991 33.4719 60.8671 33.6001 60.304 33.8894C59.741 34.1787 59.2687 34.6178 58.9394 35.1584C58.61 35.699 58.4363 36.3201 58.4375 36.9531V60.1562C58.4375 66.9939 55.7213 73.5514 50.8863 78.3863C46.0514 83.2213 39.4939 85.9375 32.6562 85.9375C25.8186 85.9375 19.2611 83.2213 14.4262 78.3863C9.59123 73.5514 6.875 66.9939 6.875 60.1562C6.875 49.0273 14.025 39.0457 24.0625 35.4062V47.2957C21.8404 48.7804 20.0408 50.8155 18.8392 53.2027C17.6376 55.5898 17.075 58.2475 17.2061 60.9168C17.3373 63.5861 18.1578 66.1759 19.5876 68.4337C21.0174 70.6915 23.0078 72.5404 25.3648 73.8001C27.7218 75.0599 30.365 75.6874 33.0366 75.6217C35.7083 75.556 38.3174 74.7992 40.6096 73.4251C42.9018 72.051 44.7989 70.1065 46.116 67.7811C47.4331 65.4557 48.1252 62.8287 48.125 60.1562V6.875H58.6523C59.4254 12.9296 62.1866 18.5564 66.5026 22.8724C70.8186 27.1885 76.4454 29.9496 82.5 30.7227V41.0953Z" fill="black"/>
</svg>
