<svg width="90" height="90" viewBox="0 0 90 90" fill="none" xmlns="http://www.w3.org/2000/svg">
<path d="M44.6875 24.0625C40.6083 24.0625 36.6206 25.2721 33.2289 27.5384C29.8371 29.8047 27.1935 33.0259 25.6325 36.7947C24.0714 40.5634 23.663 44.7104 24.4588 48.7112C25.2546 52.7121 27.219 56.3871 30.1034 59.2716C32.9879 62.156 36.6629 64.1204 40.6638 64.9162C44.6646 65.712 48.8116 65.3036 52.5803 63.7425C56.3491 62.1815 59.5703 59.5379 61.8366 56.1461C64.1029 52.7544 65.3125 48.7667 65.3125 44.6875C65.3068 39.2192 63.132 33.9764 59.2653 30.1097C55.3986 26.243 50.1558 24.0682 44.6875 24.0625ZM44.6875 58.4375C41.968 58.4375 39.3096 57.6311 37.0484 56.1202C34.7872 54.6093 33.0249 52.4619 31.9842 49.9494C30.9435 47.4369 30.6712 44.6722 31.2017 42.005C31.7322 39.3378 33.0418 36.8878 34.9648 34.9648C36.8878 33.0418 39.3378 31.7322 42.005 31.2017C44.6722 30.6712 47.4369 30.9435 49.9494 31.9842C52.4619 33.0249 54.6093 34.7872 56.1202 37.0484C57.6311 39.3096 58.4375 41.968 58.4375 44.6875C58.4375 48.3342 56.9888 51.8316 54.4102 54.4102C51.8316 56.9888 48.3342 58.4375 44.6875 58.4375ZM65.3125 0H24.0625C17.6828 0.00682441 11.5664 2.54417 7.05528 7.05528C2.54417 11.5664 0.00682441 17.6828 0 24.0625V65.3125C0.00682441 71.6922 2.54417 77.8086 7.05528 82.3197C11.5664 86.8308 17.6828 89.3682 24.0625 89.375H65.3125C71.6922 89.3682 77.8086 86.8308 82.3197 82.3197C86.8308 77.8086 89.3682 71.6922 89.375 65.3125V24.0625C89.3682 17.6828 86.8308 11.5664 82.3197 7.05528C77.8086 2.54417 71.6922 0.00682441 65.3125 0ZM82.5 65.3125C82.5 69.8709 80.6892 74.2426 77.4659 77.4659C74.2426 80.6892 69.8709 82.5 65.3125 82.5H24.0625C19.5041 82.5 15.1324 80.6892 11.9091 77.4659C8.68582 74.2426 6.875 69.8709 6.875 65.3125V24.0625C6.875 19.5041 8.68582 15.1324 11.9091 11.9091C15.1324 8.68582 19.5041 6.875 24.0625 6.875H65.3125C69.8709 6.875 74.2426 8.68582 77.4659 11.9091C80.6892 15.1324 82.5 19.5041 82.5 24.0625V65.3125ZM72.1875 22.3438C72.1875 23.3636 71.8851 24.3605 71.3185 25.2084C70.7519 26.0563 69.9466 26.7172 69.0045 27.1075C68.0623 27.4978 67.0255 27.5999 66.0253 27.4009C65.0251 27.202 64.1063 26.7109 63.3852 25.9898C62.6641 25.2687 62.173 24.3499 61.9741 23.3497C61.7751 22.3495 61.8772 21.3127 62.2675 20.3705C62.6578 19.4284 63.3187 18.6231 64.1666 18.0565C65.0145 17.4899 66.0114 17.1875 67.0312 17.1875C68.3988 17.1875 69.7103 17.7307 70.6773 18.6977C71.6442 19.6647 72.1875 20.9762 72.1875 22.3438Z" fill="black"/>
</svg>
