<svg width="110" height="110" viewBox="0 0 110 110" fill="none" xmlns="http://www.w3.org/2000/svg">
<path d="M80.6008 62.2359L66.8508 55.3609C66.3095 55.0912 65.7067 54.9691 65.1032 55.0068C64.4996 55.0445 63.9167 55.2408 63.4133 55.5758L57.1012 59.7867C54.2036 58.1938 51.8191 55.8093 50.2262 52.9117L54.4371 46.5996C54.7721 46.0962 54.9684 45.5132 55.0061 44.9097C55.0438 44.3062 54.9217 43.7034 54.6519 43.1621L47.7769 29.4121C47.492 28.8366 47.0515 28.3525 46.5055 28.0145C45.9594 27.6766 45.3297 27.4983 44.6875 27.5C40.1291 27.5 35.7574 29.3108 32.5341 32.5341C29.3108 35.7574 27.5 40.1291 27.5 44.6875C27.5114 54.7125 31.4988 64.3237 38.5876 71.4124C45.6763 78.5012 55.2875 82.4886 65.3125 82.5C67.5696 82.5 69.8046 82.0554 71.8899 81.1917C73.9751 80.3279 75.8699 79.0619 77.4659 77.4659C79.0619 75.8699 80.3279 73.9752 81.1917 71.8899C82.0554 69.8046 82.5 67.5696 82.5 65.3125C82.5005 64.6739 82.323 64.0478 81.9875 63.5044C81.6521 62.9609 81.1719 62.5217 80.6008 62.2359ZM65.3125 75.625C57.1101 75.6159 49.2464 72.3535 43.4464 66.5536C37.6465 60.7536 34.3841 52.8898 34.375 44.6875C34.3743 42.3032 35.1998 39.9924 36.711 38.1483C38.2222 36.3041 40.3258 35.0406 42.6637 34.5727L47.5965 44.4555L43.3984 50.7031C43.0847 51.1737 42.892 51.7144 42.8372 52.2773C42.7825 52.8402 42.8675 53.4079 43.0848 53.9301C45.5442 59.7755 50.1944 64.4257 56.0398 66.8852C56.5636 67.112 57.1356 67.2049 57.7042 67.1554C58.2728 67.1058 58.8202 66.9155 59.2969 66.6016L65.5746 62.4164L75.4574 67.3492C74.9859 69.6898 73.7168 71.7943 71.8667 73.3035C70.0166 74.8127 67.7001 75.6332 65.3125 75.625ZM55 10.3125C47.2848 10.3108 39.7006 12.3066 32.9856 16.1057C26.2706 19.9047 20.6536 25.3776 16.6812 31.9915C12.7088 38.6055 10.5165 46.1352 10.3176 53.8478C10.1187 61.5605 11.9199 69.1932 15.5461 76.0031L10.6691 90.634C10.2652 91.8453 10.2065 93.1453 10.4998 94.388C10.7931 95.6308 11.4267 96.7674 12.3297 97.6703C13.2326 98.5732 14.3691 99.2069 15.6119 99.5002C16.8547 99.7935 18.1547 99.7348 19.366 99.3309L33.9969 94.4539C39.99 97.6416 46.6306 99.422 53.4146 99.66C60.1985 99.8981 66.9476 98.5875 73.1494 95.8278C79.3512 93.068 84.8429 88.9317 89.2074 83.7327C93.572 78.5337 96.6948 72.4087 98.3388 65.8227C99.9828 59.2366 100.105 52.3626 98.6955 45.7223C97.2862 39.0821 94.3826 32.8502 90.2053 27.4996C86.0279 22.1491 80.6865 17.8205 74.5865 14.8425C68.4864 11.8645 61.7881 10.3153 55 10.3125ZM55 92.8125C48.3526 92.817 41.8219 91.0665 36.068 87.7379C35.6467 87.4936 35.1783 87.3416 34.6938 87.2919C34.2094 87.2423 33.7199 87.2962 33.2578 87.45L17.1875 92.8125L22.5457 76.7422C22.7001 76.2804 22.7547 75.7911 22.7058 75.3066C22.657 74.8222 22.5057 74.3536 22.2621 73.932C18.094 66.7258 16.4205 58.3455 17.5013 50.0911C18.582 41.8367 22.3566 34.1697 28.2394 28.2794C34.1223 22.3892 41.7845 18.6049 50.0375 17.5137C58.2905 16.4226 66.673 18.0854 73.8845 22.2444C81.0959 26.4034 86.7334 32.826 89.9222 40.5159C93.1111 48.2058 93.673 56.7331 91.521 64.7749C89.3689 72.8168 84.6231 79.9237 78.0198 84.9931C71.4165 90.0625 63.3248 92.8111 55 92.8125Z" fill="black"/>
</svg>
